<?xml version="1.0" encoding="UTF-8"?>
<!DOCTYPE svg PUBLIC "-//W3C//DTD SVG 1.1//EN" "http://www.w3.org/Graphics/SVG/1.1/DTD/svg11.dtd">
<svg xmlns="http://www.w3.org/2000/svg" version="1.1" width="291px" height="115px" style="shape-rendering:geometricPrecision; text-rendering:geometricPrecision; image-rendering:optimizeQuality; fill-rule:evenodd; clip-rule:evenodd" xmlns:xlink="http://www.w3.org/1999/xlink">
<g><path style="opacity:0.737" fill="#fefffe" d="M 50.5,15.5 C 60.9599,15.7922 66.1266,21.1255 66,31.5C 64.8831,31.6651 63.7164,31.9984 62.5,32.5C 61.2384,29.8845 60.0718,27.2179 59,24.5C 49.7489,18.8851 44.5822,21.5518 43.5,32.5C 42.1667,32.5 40.8333,32.5 39.5,32.5C 37.838,23.5711 41.5046,17.9045 50.5,15.5 Z"/></g>
<g><path style="opacity:0.928" fill="#fefffe" d="M 38.5,33.5 C 52.6059,33.8356 66.6059,34.3356 80.5,35C 81.4825,43.081 81.8158,51.2476 81.5,59.5C 71.5903,56.4744 61.757,53.1411 52,49.5C 50.7202,49.6135 49.8869,50.2801 49.5,51.5C 51.1932,52.2283 52.6932,53.2283 54,54.5C 54.3333,54.1667 54.6667,53.8333 55,53.5C 63.5274,57.6037 72.0274,60.937 80.5,63.5C 81.8232,73.0299 81.8232,82.5299 80.5,92C 61.5029,92.4999 42.5029,92.6666 23.5,92.5C 23.5,83.8333 23.5,75.1667 23.5,66.5C 32.6534,69.1626 41.6534,72.3293 50.5,76C 52.5787,76.8077 54.5787,76.641 56.5,75.5C 55.91,74.2011 54.91,73.3678 53.5,73C 43.7951,69.5984 34.1285,66.0984 24.5,62.5C 23.3347,53.5185 23.168,44.5185 24,35.5C 28.9336,34.8563 33.767,34.1897 38.5,33.5 Z"/></g>
<g><path style="opacity:0.928" fill="#fefffe" d="M 127.5,44.5 C 129.833,44.5 132.167,44.5 134.5,44.5C 134.678,47.8788 134.678,51.0454 134.5,54C 142.255,52.0291 148.088,54.5291 152,61.5C 152.5,68.4921 152.666,75.4921 152.5,82.5C 150.167,82.5 147.833,82.5 145.5,82.5C 145.666,76.4908 145.499,70.4908 145,64.5C 141.29,59.1386 137.957,59.4719 135,65.5C 134.501,71.1569 134.334,76.8236 134.5,82.5C 132.123,82.7845 129.956,82.7845 128,82.5C 127.5,69.8377 127.333,57.1711 127.5,44.5 Z"/></g>
<g><path style="opacity:0.926" fill="#fefffe" d="M 221.5,44.5 C 224.397,44.1253 227.063,44.6253 229.5,46C 228.677,58.4245 228.177,70.9245 228,83.5C 225.907,82.7539 223.907,82.4205 222,82.5C 221.5,69.8377 221.333,57.1711 221.5,44.5 Z"/></g>
<g><path style="opacity:0.693" fill="#fefffe" d="M 269.5,44.5 C 278.031,44.5059 280.698,48.3393 277.5,56C 271.638,58.988 267.638,57.488 265.5,51.5C 266.071,48.6873 267.404,46.354 269.5,44.5 Z M 275.5,54.5 C 273.337,56.8277 271.17,56.8277 269,54.5C 266.817,47.3488 269.15,45.0155 276,47.5C 278.066,50.0861 277.9,52.4194 275.5,54.5 Z"/></g>
<g><path style="opacity:0.648" fill="#fefefe" d="M 275.5,54.5 C 273.983,54.4894 272.816,53.8228 272,52.5C 271.667,53.1667 271.333,53.8333 271,54.5C 270.749,52.567 270.249,50.7337 269.5,49C 271.202,47.2816 273.035,47.115 275,48.5C 275.495,50.4727 275.662,52.4727 275.5,54.5 Z"/></g>
<g><path style="opacity:0.895" fill="#fefffe" d="M 109.5,53.5 C 118.075,52.5967 123.075,56.2634 124.5,64.5C 122.143,64.6633 119.81,64.4966 117.5,64C 115.324,60.8219 112.657,60.1552 109.5,62C 108.289,62.8928 108.289,63.7261 109.5,64.5C 113.155,65.332 116.821,66.1654 120.5,67C 126.5,73.6667 125.5,79.0001 117.5,83C 109.251,85.3725 103.584,82.7058 100.5,75C 101.697,73.4801 103.197,72.3134 105,71.5C 106.833,72.6667 108.333,74.1667 109.5,76C 111.833,76.6667 114.167,76.6667 116.5,76C 116.957,75.586 117.291,75.086 117.5,74.5C 114.128,72.5704 110.461,71.4037 106.5,71C 101.262,67.7262 100.096,63.2262 103,57.5C 105.095,55.8753 107.261,54.5419 109.5,53.5 Z"/></g>
<g><path style="opacity:0.915" fill="#fefffe" d="M 167.5,53.5 C 183.08,54.8966 188.247,62.8966 183,77.5C 176.178,84.4322 168.678,85.2655 160.5,80C 156.918,76.263 155.085,71.763 155,66.5C 154.346,67.6956 153.846,67.6956 153.5,66.5C 154.325,65.6143 155.325,65.281 156.5,65.5C 158.095,59.5728 161.762,55.5728 167.5,53.5 Z M 169.5,60.5 C 178.332,62.6523 180.332,67.4857 175.5,75C 165.573,78.0714 161.74,74.5714 164,64.5C 165.5,62.5313 167.333,61.198 169.5,60.5 Z"/></g>
<g><path style="opacity:0.92" fill="#fefffe" d="M 201.5,53.5 C 216.092,54.6639 221.259,62.3306 217,76.5C 211.559,83.731 204.726,85.3977 196.5,81.5C 195.801,84.8323 195.468,88.499 195.5,92.5C 193.167,92.5 190.833,92.5 188.5,92.5C 188.5,79.8333 188.5,67.1667 188.5,54.5C 191.397,54.3187 194.23,54.6521 197,55.5C 198.728,55.101 200.228,54.4343 201.5,53.5 Z M 202.5,60.5 C 211.321,62.6329 213.321,67.4662 208.5,75C 198.573,78.0714 194.74,74.5714 197,64.5C 198.5,62.5313 200.333,61.198 202.5,60.5 Z"/></g>
<g><path style="opacity:0.913" fill="#fefefe" d="M 232.5,54.5 C 235.119,54.2317 237.619,54.565 240,55.5C 241.831,61.1126 243.998,66.1126 246.5,70.5C 249.151,65.7159 251.317,60.7159 253,55.5C 255.381,54.565 257.881,54.2317 260.5,54.5C 256.575,66.3568 252.075,78.0235 247,89.5C 243.959,91.9287 240.459,92.9287 236.5,92.5C 236.5,90.1667 236.5,87.8333 236.5,85.5C 239.833,86.1667 241.833,84.8333 242.5,81.5C 238.763,72.6188 235.429,63.6188 232.5,54.5 Z"/></g>
</svg>
