<?xml version="1.0" standalone="no"?>
<!DOCTYPE svg PUBLIC "-//W3C//DTD SVG 20010904//EN"
 "http://www.w3.org/TR/2001/REC-SVG-20010904/DTD/svg10.dtd">
<svg version="1.0" xmlns="http://www.w3.org/2000/svg"
 width="1072.000000pt" height="404.000000pt" viewBox="0 0 1072.000000 404.000000"
 preserveAspectRatio="xMidYMid meet">

<g transform="translate(0.000000,404.000000) scale(0.100000,-0.100000)"
fill="#000000" stroke="none">
<path d="M1240 3780 c-6 -12 -21 -20 -36 -20 -18 0 -53 -29 -134 -110 -107
-107 -110 -111 -110 -154 0 -35 -5 -48 -20 -56 -19 -10 -20 -19 -18 -123 l3
-112 75 0 75 0 3 92 c2 80 5 94 22 103 12 6 20 21 20 36 0 35 129 164 164 164
15 0 30 8 36 20 9 18 21 20 100 20 79 0 91 -2 100 -20 8 -15 21 -20 56 -20 41
0 50 -5 94 -50 34 -33 50 -57 50 -74 0 -15 8 -30 20 -36 13 -7 20 -21 20 -40
0 -19 7 -33 20 -40 16 -8 20 -23 22 -83 l3 -72 75 0 75 0 3 49 c2 35 9 54 25
67 l22 19 -22 19 c-13 11 -23 31 -23 45 0 15 -8 30 -20 36 -15 8 -20 21 -20
56 0 43 -3 47 -110 154 -81 81 -116 110 -134 110 -15 0 -30 8 -36 20 -10 19
-21 20 -200 20 -179 0 -190 -1 -200 -20z"/>
<path d="M2096 3074 c-9 -8 -16 -20 -16 -25 0 -17 -29 -9 -40 11 -6 11 -17 20
-25 20 -7 0 -17 -9 -20 -20 -5 -16 -15 -20 -55 -20 -40 0 -50 4 -55 20 -8 26
-29 25 -49 -2 l-16 -23 -16 23 c-20 27 -41 28 -49 2 -4 -14 -15 -20 -35 -20
-19 0 -33 7 -40 20 -7 13 -21 20 -40 20 -20 0 -31 -6 -35 -20 -3 -11 -13 -20
-20 -20 -8 0 -19 9 -25 20 -14 25 -37 26 -45 1 -3 -11 -12 -22 -20 -25 -21 -8
-43 3 -50 25 -8 25 -29 24 -48 -3 l-16 -23 -21 25 -20 25 -20 -25 -21 -25 -16
23 c-19 27 -40 28 -48 2 -5 -16 -15 -20 -53 -20 -36 0 -50 5 -60 20 -7 11 -19
20 -26 20 -8 0 -18 -9 -21 -20 -9 -27 -52 -26 -76 3 l-19 22 -19 -22 c-16 -20
-29 -23 -85 -23 -55 0 -68 3 -78 20 -8 12 -24 20 -40 20 -18 0 -29 -7 -33 -20
-3 -11 -13 -20 -20 -20 -8 0 -19 9 -25 20 -14 25 -37 26 -45 1 -11 -37 -59
-37 -70 0 -8 25 -29 24 -49 -3 l-16 -23 -16 23 c-20 27 -41 28 -49 2 -5 -16
-17 -20 -78 -22 l-72 -3 -3 -32 c-2 -24 2 -34 17 -43 28 -14 28 -65 1 -80 -27
-14 -26 -57 3 -81 l22 -19 -22 -19 c-21 -17 -23 -28 -23 -103 0 -72 3 -85 20
-96 25 -15 26 -39 1 -47 -10 -3 -21 -15 -24 -26 -5 -19 15 -49 34 -49 17 0 9
-28 -14 -44 l-22 -16 22 -16 c28 -20 29 -41 4 -49 -37 -11 -37 -59 0 -70 25
-8 24 -31 -1 -45 -26 -14 -26 -37 0 -45 27 -9 27 -56 -1 -73 -17 -11 -20 -21
-17 -65 l3 -52 52 -3 c40 -2 55 -8 63 -23 8 -15 21 -19 60 -19 39 0 52 -4 60
-20 8 -16 21 -20 60 -20 39 0 52 -4 60 -20 7 -13 21 -20 40 -20 19 0 33 -7 40
-20 8 -16 21 -20 60 -20 39 0 52 -4 60 -20 8 -16 21 -20 60 -20 39 0 52 -4 60
-20 8 -16 21 -20 60 -20 39 0 52 -4 60 -20 7 -13 21 -20 40 -20 19 0 33 -7 40
-20 8 -16 21 -20 60 -20 39 0 52 -4 60 -20 9 -17 21 -20 80 -20 59 0 71 -3 80
-20 7 -13 21 -20 40 -20 19 0 33 -7 40 -20 6 -12 21 -20 36 -20 31 0 84 -50
84 -80 0 -12 -13 -35 -29 -51 -24 -23 -38 -29 -75 -29 -35 0 -48 5 -56 20 -8
16 -21 20 -60 20 -39 0 -52 4 -60 20 -8 16 -21 20 -60 20 -39 0 -52 4 -60 20
-8 16 -21 20 -60 20 -39 0 -52 4 -60 20 -9 17 -21 20 -78 20 -66 0 -68 1 -102
40 -31 36 -40 40 -82 40 -37 0 -50 4 -58 20 -8 16 -21 20 -60 20 -39 0 -52 4
-60 20 -8 16 -21 20 -60 20 -39 0 -52 4 -60 20 -8 16 -21 20 -60 20 -39 0 -52
4 -60 20 -6 12 -21 20 -36 20 -15 0 -34 10 -44 23 l-19 22 -33 -33 -33 -34 22
-15 c28 -19 29 -40 3 -48 -27 -9 -27 -60 0 -75 27 -15 27 -65 0 -80 -18 -9
-20 -21 -20 -96 0 -77 2 -88 23 -105 l22 -19 -22 -19 c-20 -16 -23 -29 -23
-85 0 -55 3 -67 20 -76 27 -15 27 -65 0 -80 -27 -15 -27 -66 0 -75 26 -8 25
-29 -3 -48 l-22 -16 25 -21 25 -21 -23 -16 c-27 -19 -28 -40 -3 -48 11 -3 22
-12 25 -20 4 -12 35 -15 172 -15 160 0 167 1 185 22 l19 23 19 -22 c17 -20 29
-23 101 -23 72 0 84 3 101 22 l19 23 19 -23 c19 -21 24 -22 221 -22 197 0 202
1 221 22 l19 23 19 -23 c19 -22 23 -22 261 -22 238 0 242 0 261 23 l19 22 19
-22 c17 -20 29 -23 101 -23 72 0 84 3 101 23 l19 22 19 -23 c19 -22 24 -22
168 -20 l148 3 3 52 c2 41 7 53 23 58 25 8 24 31 -1 45 -25 14 -26 37 -1 45
37 11 37 59 0 70 -25 8 -24 29 4 48 l22 16 -25 21 -25 20 25 20 25 20 -25 20
-25 20 25 20 25 20 -25 20 -25 20 25 20 25 20 -25 20 -25 20 25 20 25 20 -25
20 -25 20 25 20 25 20 -25 20 -25 20 25 20 25 20 -25 20 -25 20 25 20 25 20
-25 20 -25 21 23 16 c27 19 28 40 2 48 -16 5 -20 17 -22 78 l-3 72 -32 3 c-20
2 -37 11 -43 23 -8 15 -21 19 -60 19 -39 0 -52 4 -60 20 -8 16 -21 20 -60 20
-39 0 -52 4 -60 20 -8 16 -21 20 -60 20 -39 0 -52 4 -60 20 -8 16 -21 20 -60
20 -39 0 -52 4 -60 20 -8 16 -21 20 -60 20 -39 0 -52 4 -60 20 -7 13 -21 20
-40 20 -19 0 -33 7 -40 20 -8 16 -21 20 -60 20 -39 0 -52 4 -60 20 -8 16 -21
20 -60 20 -39 0 -52 4 -60 20 -8 16 -21 20 -60 20 -39 0 -52 4 -60 20 -6 12
-21 20 -36 20 -15 0 -38 12 -55 30 -26 26 -30 36 -27 77 l3 48 72 3 c64 3 73
1 83 -18 9 -17 20 -20 80 -20 59 0 71 -3 80 -20 7 -13 21 -20 40 -20 19 0 33
-7 40 -20 8 -16 21 -20 60 -20 39 0 52 -4 60 -20 8 -16 21 -20 60 -20 39 0 52
-4 60 -20 8 -16 21 -20 60 -20 39 0 52 -4 60 -20 8 -16 21 -20 60 -20 39 0 52
-4 60 -20 7 -13 21 -20 40 -20 19 0 33 -7 40 -20 8 -16 21 -20 60 -20 39 0 52
-4 60 -20 8 -16 21 -20 58 -20 36 0 50 -5 60 -20 7 -11 19 -20 27 -20 12 0 15
15 15 74 0 66 2 75 20 81 11 3 20 13 20 20 0 8 -9 19 -20 25 -11 6 -20 17 -20
25 0 7 9 17 20 20 14 4 20 15 20 35 0 19 -7 33 -20 40 -13 7 -20 21 -20 40 0
19 7 33 20 40 13 7 20 21 20 40 0 19 -7 33 -20 40 -27 14 -26 57 3 81 l22 19
-22 19 c-29 24 -30 67 -3 81 13 7 20 21 20 40 0 20 -6 31 -20 35 -26 8 -25 29
3 48 l22 16 -25 21 -25 21 23 16 c27 19 28 40 3 48 -11 3 -22 12 -25 20 -3 8
-17 15 -32 15 -14 0 -34 10 -45 23 l-19 22 -19 -22 c-26 -31 -106 -33 -116 -3
-8 26 -29 25 -48 -2 l-16 -23 -21 25 -21 25 -16 -22 c-15 -23 -43 -31 -43 -14
0 12 -29 41 -40 41 -5 0 -16 -7 -24 -16z"/>
<path d="M4445 2668 c-3 -7 -4 -348 -3 -758 l3 -745 135 0 135 0 3 352 c2 340
3 353 22 363 12 6 20 21 20 36 0 33 51 84 84 84 15 0 30 8 36 20 8 16 21 20
60 20 39 0 52 -4 60 -20 6 -12 21 -20 36 -20 33 0 84 -51 84 -84 0 -15 8 -30
20 -36 19 -10 20 -23 22 -363 l3 -352 135 0 135 0 3 392 c2 384 2 392 -18 403
-13 7 -20 21 -20 40 0 19 -7 33 -20 40 -12 6 -20 21 -20 36 0 18 -25 49 -90
114 -86 87 -91 90 -134 90 -35 0 -48 5 -56 20 -9 18 -21 20 -100 20 -79 0 -91
-2 -100 -20 -7 -13 -21 -20 -40 -20 -19 0 -33 -7 -40 -21 -9 -15 -19 -19 -43
-17 l-32 3 -5 215 -5 215 -133 3 c-100 2 -134 -1 -137 -10z"/>
<path d="M8205 2668 c-3 -7 -4 -348 -3 -758 l3 -745 135 0 135 0 0 755 0 755
-133 3 c-100 2 -134 -1 -137 -10z"/>
<path d="M10068 2608 c-38 -38 -68 -78 -68 -89 0 -11 -9 -27 -20 -36 -15 -13
-20 -30 -20 -65 0 -37 4 -50 20 -58 12 -6 20 -21 20 -36 0 -17 21 -45 70 -94
l69 -70 105 0 c94 0 106 2 116 19 6 12 23 21 43 23 28 3 32 7 35 35 2 20 11
37 23 43 11 6 19 21 19 35 0 14 9 33 20 42 15 13 20 30 20 63 0 33 -5 50 -20
63 -11 9 -20 25 -20 36 0 11 -32 51 -70 90 l-71 71 -102 -1 -102 -1 -67 -70z
m325 -58 l47 -49 0 -80 0 -81 -40 -40 c-22 -22 -40 -44 -40 -49 0 -12 -37 -24
-49 -17 -5 3 -20 -3 -34 -14 -32 -25 -42 -25 -74 0 -14 11 -35 20 -47 20 -30
0 -76 50 -76 83 0 16 -8 30 -20 37 -17 9 -20 21 -20 76 0 63 1 66 46 114 51
54 74 60 199 52 56 -4 63 -7 108 -52z"/>
<path d="M10194 2532 c-31 -27 -32 -29 -35 -131 -4 -91 -2 -105 14 -115 21
-13 40 8 31 35 -5 19 20 49 41 49 17 0 35 -31 35 -58 0 -21 18 -32 50 -32 28
0 32 15 10 43 -26 32 -25 59 1 75 17 11 20 21 17 65 -3 50 -4 52 -34 55 -18 2
-40 12 -50 23 -23 26 -43 24 -80 -9z m74 -54 c19 -19 14 -37 -13 -44 -34 -8
-58 12 -44 37 11 22 39 25 57 7z"/>
<path d="M3760 2300 c-9 -17 -21 -20 -78 -20 -66 0 -68 -1 -102 -40 -22 -25
-44 -40 -58 -40 -32 0 -82 -52 -82 -84 0 -15 -8 -30 -20 -36 -19 -10 -20 -21
-20 -156 l0 -145 70 -69 c65 -66 72 -70 114 -70 35 0 48 -5 56 -20 9 -18 21
-20 100 -20 79 0 91 -2 100 -20 9 -17 21 -20 76 -20 59 0 68 -3 95 -29 16 -16
29 -39 29 -51 0 -12 -13 -35 -29 -51 l-29 -29 -142 0 -142 0 -28 28 c-16 16
-30 42 -32 58 l-3 29 -135 0 -135 0 -3 -52 c-3 -44 0 -53 17 -63 14 -7 21 -21
21 -40 0 -19 7 -33 19 -40 12 -6 21 -23 23 -43 3 -27 7 -32 33 -35 19 -3 43
-18 66 -43 24 -26 44 -39 62 -39 16 0 30 -8 37 -20 10 -19 21 -20 200 -20 179
0 190 1 200 20 7 13 21 20 40 20 19 0 33 7 40 20 6 12 21 20 36 20 34 0 124
90 124 124 0 15 8 30 20 36 18 10 20 21 20 120 0 99 -2 110 -20 120 -12 6 -20
21 -20 36 0 34 -90 124 -124 124 -15 0 -30 8 -36 20 -9 17 -21 20 -80 20 -59
0 -71 3 -80 20 -9 18 -21 20 -100 20 -78 0 -91 2 -100 19 -6 12 -23 21 -43 23
-32 3 -32 3 -32 58 0 55 0 55 32 58 20 2 37 11 43 23 9 16 22 19 80 19 58 0
71 -3 80 -19 6 -12 23 -21 43 -23 27 -3 33 -7 35 -32 2 -16 16 -42 32 -58 28
-27 31 -28 132 -28 102 1 103 1 133 31 l30 31 -22 18 c-18 14 -23 29 -23 64 0
35 -4 48 -20 56 -12 6 -20 21 -20 36 0 32 -50 84 -82 84 -14 0 -36 15 -58 40
-34 39 -36 40 -102 40 -57 0 -69 3 -78 20 -9 17 -21 20 -80 20 -59 0 -71 -3
-80 -20z"/>
<path d="M6080 2300 c-9 -17 -21 -20 -78 -20 -66 0 -68 -1 -102 -40 -21 -24
-44 -40 -58 -40 -33 0 -202 -171 -202 -204 0 -15 -8 -30 -20 -36 -17 -9 -20
-21 -20 -80 0 -59 -3 -71 -20 -80 -18 -9 -20 -21 -20 -100 0 -79 2 -91 20
-100 16 -8 20 -21 20 -60 0 -39 4 -52 20 -60 12 -7 20 -21 20 -38 0 -19 12
-37 40 -62 25 -22 40 -44 40 -58 0 -30 52 -82 82 -82 14 0 36 -15 58 -40 25
-28 43 -40 62 -40 17 0 31 -8 38 -20 10 -19 21 -20 200 -20 179 0 190 1 200
20 7 13 21 20 40 20 19 0 33 7 40 20 6 12 21 20 36 20 35 0 204 169 204 204 0
15 8 30 20 36 16 8 20 21 20 60 0 39 4 52 20 60 19 10 20 21 20 160 0 139 -1
150 -20 160 -13 7 -20 21 -20 40 0 19 -7 33 -20 40 -12 6 -20 21 -20 36 0 35
-209 244 -244 244 -15 0 -30 8 -36 20 -8 16 -21 20 -60 20 -39 0 -52 4 -60 20
-9 18 -21 20 -100 20 -79 0 -91 -2 -100 -20z m160 -280 c7 -13 21 -20 40 -20
19 0 33 -7 40 -19 6 -12 23 -21 43 -23 27 -3 32 -7 35 -33 3 -19 18 -43 43
-66 l39 -36 0 -106 c0 -96 -2 -107 -20 -117 -12 -6 -20 -21 -20 -36 0 -17 -21
-45 -70 -94 l-69 -70 -125 0 c-115 0 -126 2 -136 20 -6 12 -21 20 -36 20 -34
0 -124 90 -124 124 0 15 -8 30 -20 36 -18 9 -20 21 -20 100 0 79 2 91 20 100
12 6 20 21 20 36 0 17 21 45 70 94 65 66 72 70 114 70 35 0 48 5 56 20 8 16
21 20 60 20 39 0 52 -4 60 -20z"/>
<path d="M7440 2300 c-9 -17 -21 -20 -77 -20 -64 0 -67 -1 -104 -41 -30 -32
-43 -40 -66 -37 -24 2 -29 8 -33 38 l-5 35 -135 0 -135 0 0 -755 0 -755 135 0
135 0 5 215 5 215 32 3 c24 2 34 -2 43 -17 9 -17 20 -21 60 -21 39 0 52 -4 60
-20 10 -19 21 -20 160 -20 139 0 150 1 160 20 7 13 21 20 40 20 19 0 33 7 40
20 6 12 21 20 36 20 18 0 53 29 134 110 l110 110 0 64 c0 55 3 67 20 76 19 10
20 21 20 160 0 139 -1 150 -20 160 -16 8 -20 21 -20 58 0 42 -4 51 -40 82 -25
22 -40 44 -40 58 0 31 -91 122 -122 122 -14 0 -36 15 -58 40 -31 36 -40 40
-82 40 -37 0 -50 4 -58 20 -9 18 -21 20 -100 20 -79 0 -91 -2 -100 -20z m80
-280 c8 -16 21 -20 60 -20 39 0 52 -4 60 -20 6 -12 21 -20 36 -20 33 0 84 -51
84 -84 0 -15 8 -30 20 -36 18 -10 20 -21 20 -136 l0 -125 -90 -89 -89 -90
-125 0 c-115 0 -126 2 -136 20 -6 12 -21 20 -36 20 -17 0 -41 16 -74 50 -45
44 -50 53 -50 94 0 35 -5 48 -20 56 -16 8 -20 21 -20 60 0 39 4 52 20 60 15 8
20 21 20 56 0 42 4 49 70 114 49 49 77 70 94 70 15 0 30 8 36 20 8 16 21 20
60 20 39 0 52 -4 60 -20z"/>
<path d="M8647 2274 c-4 -4 -7 -29 -7 -55 0 -38 4 -51 20 -59 13 -7 20 -21 20
-40 0 -19 7 -33 20 -40 16 -8 20 -21 20 -60 0 -39 4 -52 20 -60 13 -7 20 -21
20 -40 0 -19 7 -33 20 -40 16 -8 20 -21 20 -60 0 -39 4 -52 20 -60 13 -7 20
-21 20 -40 0 -19 7 -33 20 -40 16 -8 20 -21 20 -60 0 -39 4 -52 20 -60 13 -7
20 -21 20 -40 0 -19 7 -33 20 -40 16 -8 20 -21 20 -60 0 -39 4 -52 20 -60 13
-7 20 -21 20 -40 0 -19 7 -33 20 -40 17 -9 20 -21 20 -80 0 -58 -3 -71 -19
-80 -12 -6 -21 -23 -23 -43 l-3 -32 -95 -5 -95 -5 0 -135 0 -135 112 -3 c104
-2 113 -1 123 18 8 15 21 20 56 20 41 0 50 5 94 50 34 33 50 57 50 74 0 15 8
30 20 36 16 8 20 21 20 60 0 39 4 52 20 60 13 7 20 21 20 40 0 19 7 33 20 40
16 8 20 21 20 60 0 39 4 52 20 60 16 8 20 21 20 60 0 39 4 52 20 60 13 7 20
21 20 40 0 19 7 33 20 40 13 7 20 21 20 40 0 19 7 33 20 40 16 8 20 21 20 60
0 39 4 52 20 60 13 7 20 21 20 40 0 19 7 33 20 40 16 8 20 21 20 60 0 39 4 52
20 60 13 7 20 21 20 40 0 19 7 33 20 40 16 8 20 21 20 60 0 39 4 52 20 60 13
7 20 21 20 40 0 19 7 33 21 40 17 10 20 19 17 63 l-3 52 -135 0 -135 0 -3 -32
c-2 -20 -11 -37 -23 -43 -12 -7 -19 -21 -19 -40 0 -19 -7 -33 -20 -40 -13 -7
-20 -21 -20 -40 0 -19 -7 -33 -20 -40 -16 -8 -20 -21 -20 -60 0 -39 -4 -52
-20 -60 -13 -7 -20 -21 -20 -40 0 -19 -7 -33 -20 -40 -16 -8 -20 -21 -20 -60
0 -39 -4 -52 -19 -60 -15 -8 -21 -23 -23 -63 l-3 -52 -35 0 -35 0 -3 52 c-2
40 -8 55 -23 63 -12 7 -19 21 -19 40 0 19 -7 33 -20 40 -16 8 -20 21 -20 60 0
39 -4 52 -20 60 -13 7 -20 21 -20 40 0 19 -7 33 -20 40 -16 8 -20 21 -20 60 0
39 -4 52 -20 60 -13 7 -20 21 -20 40 0 19 -7 33 -19 40 -12 6 -21 23 -23 43
l-3 32 -131 3 c-71 1 -133 -1 -137 -4z"/>
</g>
</svg>
